<?xml version="1.0" encoding="UTF-8" standalone="no"?>
<!-- Created with Inkscape (http://www.inkscape.org/) -->

<svg
   width="58mm"
   height="85mm"
   viewBox="0 0 58 85"
   version="1.1"
   id="svg667"
   inkscape:version="1.2.2 (732a01da63, 2022-12-09)"
   sodipodi:docname="location_pin_heart.svg"
   xmlns:inkscape="http://www.inkscape.org/namespaces/inkscape"
   xmlns:sodipodi="http://sodipodi.sourceforge.net/DTD/sodipodi-0.dtd"
   xmlns="http://www.w3.org/2000/svg"
   xmlns:svg="http://www.w3.org/2000/svg">
  <sodipodi:namedview
     id="namedview669"
     pagecolor="#505050"
     bordercolor="#ffffff"
     borderopacity="1"
     inkscape:showpageshadow="0"
     inkscape:pageopacity="0"
     inkscape:pagecheckerboard="1"
     inkscape:deskcolor="#505050"
     inkscape:document-units="mm"
     showgrid="false"
     inkscape:zoom="1.0610557"
     inkscape:cx="397.71709"
     inkscape:cy="562.64717"
     inkscape:window-width="1605"
     inkscape:window-height="2054"
     inkscape:window-x="1789"
     inkscape:window-y="7"
     inkscape:window-maximized="0"
     inkscape:current-layer="layer1" />
  <defs
     id="defs664" />
  <g
     inkscape:label="Layer 1"
     inkscape:groupmode="layer"
     id="layer1">
    <path
       id="path115"
       style="fill:#ff5555;stroke-width:0.264583"
       d="m 29.102313,1.4515548 c -15.492447,2e-6 -28.0515066,12.5896202 -28.0515066,27.7626462 0,15.173026 28.3403766,54.367744 28.3403766,54.367744 0,0 27.76265,-39.194716 27.76265,-54.367744 0,-15.173028 -12.55905,-27.7626472 -28.05152,-27.7626462 z M 20.803086,18.512529 c 2.66147,-0.04047 5.62603,1.295633 7.991757,3.878833 l 0.30592,0.334863 0.3235,-0.351916 c 3.99115,-4.343287 9.67218,-5.141836 12.73772,-1.791106 3.06551,3.350715 2.32068,9.544495 -1.6707,13.887525 l -0.31781,0.345715 c -11.06315,11.551473 -11.09131,12.069548 -11.09131,12.069548 0,0 0.0582,-0.101604 -11.072707,-12.090218 l -0.31213,-0.341065 c -3.98439,-4.350666 -4.71717,-10.543291 -1.64331,-13.88494 1.24877,-1.357533 2.92806,-2.029639 4.74907,-2.057239 z" />
  </g>
</svg>
