<?xml version="1.0" encoding="UTF-8" standalone="no"?>
<!-- Created with Inkscape (http://www.inkscape.org/) -->

<svg
   width="210mm"
   height="297mm"
   viewBox="0 0 210 297"
   version="1.1"
   id="svg5"
   inkscape:version="1.2.2 (732a01da63, 2022-12-09)"
   sodipodi:docname="logo components heart pin.svg"
   xmlns:inkscape="http://www.inkscape.org/namespaces/inkscape"
   xmlns:sodipodi="http://sodipodi.sourceforge.net/DTD/sodipodi-0.dtd"
   xmlns="http://www.w3.org/2000/svg"
   xmlns:svg="http://www.w3.org/2000/svg">
  <sodipodi:namedview
     id="namedview7"
     pagecolor="#505050"
     bordercolor="#ffffff"
     borderopacity="1"
     inkscape:showpageshadow="0"
     inkscape:pageopacity="0"
     inkscape:pagecheckerboard="1"
     inkscape:deskcolor="#505050"
     inkscape:document-units="mm"
     showgrid="false"
     inkscape:zoom="1.829812"
     inkscape:cx="430.37208"
     inkscape:cy="550.32976"
     inkscape:window-width="2231"
     inkscape:window-height="2054"
     inkscape:window-x="1597"
     inkscape:window-y="0"
     inkscape:window-maximized="0"
     inkscape:current-layer="layer1" />
  <defs
     id="defs2" />
  <g
     inkscape:label="Layer 1"
     inkscape:groupmode="layer"
     id="layer1">
    <path
       id="path115"
       style="fill:#ff5555;stroke-width:0.264583"
       d="M 102.95237 41.065194 C 87.459915 41.065196 74.900855 53.654814 74.900854 68.82784 C 74.900854 84.000866 103.24124 123.19558 103.24124 123.19558 C 103.24124 123.19558 131.00389 84.000868 131.00389 68.82784 C 131.00389 53.654812 118.44484 41.065193 102.95237 41.065194 z M 94.653137 58.126168 C 97.314606 58.085701 100.27917 59.421801 102.6449 62.005001 L 102.95082 62.339864 L 103.27432 61.987948 C 107.26547 57.644661 112.9465 56.846112 116.01204 60.196842 C 119.07755 63.547557 118.33272 69.741337 114.34134 74.084367 L 114.02353 74.430082 C 102.96038 85.981555 102.93222 86.49963 102.93222 86.49963 C 102.93222 86.49963 102.99045 86.398026 91.859509 74.409412 L 91.547384 74.068347 C 87.562992 69.717681 86.830206 63.525056 89.904073 60.183407 C 91.152842 58.825874 92.832127 58.153768 94.653137 58.126168 z " />
    <path
       id="rect582"
       style="fill:#ff5555;stroke-width:0.235218"
       d="m 64.702732,158.33111 c -2.146894,0.0299 -4.126403,0.75695 -5.598629,2.22519 -3.62394,3.6141 -2.760065,10.31177 1.937349,15.01717 l 0.367939,0.36845 c 13.122877,12.96618 13.053983,13.07621 13.053983,13.07621 0,0 0.03351,-0.56034 13.076478,-13.05371 l 0.374653,-0.37363 c 4.705676,-4.69714 5.584012,-11.39633 1.969909,-15.02026 -3.614123,-3.62395 -10.311772,-2.76008 -15.017172,1.93734 l -0.381374,0.38034 -0.361214,-0.36173 c -2.78909,-2.79383 -6.283883,-4.23886 -9.421646,-4.19509 z"
       sodipodi:nodetypes="sscccccscccs" />
    <path
       id="path604"
       style="fill:#ff5555;stroke-width:0.146135"
       d="m 125.27001,152.40243 c -1.31018,0.0189 -2.5182,0.47875 -3.41666,1.40736 -2.21157,2.28585 -1.68437,6.52195 1.18231,9.49801 l 0.22454,0.23304 c 8.00845,8.20077 7.96641,8.27037 7.96641,8.27037 0,0 0.0204,-0.3544 7.98012,-8.25614 l 0.22864,-0.23632 c 2.87171,-2.97083 3.40773,-7.2079 1.20216,-9.49995 -2.20557,-2.29205 -6.29292,-1.74568 -9.16446,1.22533 l -0.23274,0.24055 -0.22044,-0.22879 c -1.70209,-1.76702 -3.83484,-2.68097 -5.74971,-2.65329 z"
       sodipodi:nodetypes="sscccccscccs" />
    <path
       id="path659"
       style="fill:#ff5555;stroke-width:0.264583"
       d="m 142.71617,214.14653 c 0,15.17305 -27.76242,54.36807 -27.76242,54.36807 0,0 -28.340795,-39.19502 -28.340795,-54.36807 10e-7,-15.17304 12.559131,-27.76241 28.051605,-27.76241 15.49248,0 28.05161,12.58937 28.05161,27.76241 z"
       sodipodi:nodetypes="scsss" />
  </g>
</svg>
